<svg xmlns="http://www.w3.org/2000/svg" xmlns:xlink="http://www.w3.org/1999/xlink" width="415" zoomAndPan="magnify" viewBox="0 0 311.25 473.249983" height="631" preserveAspectRatio="xMidYMid meet" version="1.2"><defs><clipPath id="d2c91913a9"><path d="M 0 0.195312 L 310 0.195312 L 310 472.308594 L 0 472.308594 Z M 0 0.195312 "/></clipPath></defs><g id="13783c3441"><path style=" stroke:none;fill-rule:nonzero;fill:#000000;fill-opacity:1;" d="M 111.855469 274.035156 L 98.386719 260.191406 L 159.738281 201.085938 L 219.96875 260.191406 L 206.128906 273.660156 L 159.738281 228.019531 Z M 111.855469 274.035156 "/><g clip-rule="nonzero" clip-path="url(#d2c91913a9)"><path style=" stroke:none;fill-rule:nonzero;fill:#07a262;fill-opacity:1;" d="M 190.042969 37.230469 C 243.914062 48.078125 283.941406 88.109375 292.546875 146.09375 L 215.855469 146.09375 C 210.242188 125.144531 196.402344 107.933594 171.710938 103.070312 L 171.710938 18.898438 L 144.402344 18.898438 L 144.402344 101.949219 C 109.609375 101.949219 84.546875 124.019531 87.914062 146.09375 C 91.964844 172.652344 121.910156 181.28125 194.53125 193.605469 C 276.832031 213.804688 312.746094 252.710938 309.753906 324.164062 C 302.273438 384.769531 261.867188 425.171875 189.667969 436.394531 L 189.667969 472.308594 L 126.070312 472.308594 L 126.070312 434.523438 C 49.753906 420.679688 3.367188 370.550781 0 305.460938 L 75.195312 305.460938 C 86.042969 345.488281 105.496094 361.199219 144.402344 368.683594 L 144.402344 454.722656 L 171.710938 454.722656 L 171.710938 368.683594 C 212.488281 366.4375 233.4375 352.222656 233.4375 324.164062 C 233.4375 301.71875 218.269531 290.273438 192.660156 281.890625 L 192.660156 260.191406 L 206.875 273.285156 L 219.96875 260.191406 L 159.738281 201.460938 L 103.25 255.703125 C 43.769531 244.855469 7.675781 203.703125 13.46875 146.09375 C 20.203125 79.128906 69.582031 40.597656 126.445312 37.230469 L 126.445312 0.570312 L 190.042969 0.570312 Z M 190.042969 37.230469 "/></g><path style=" stroke:none;fill-rule:nonzero;fill:#07a262;fill-opacity:1;" d="M 158.617188 252.710938 L 143.28125 268.050781 L 183.308594 277.777344 Z M 158.617188 252.710938 "/></g></svg>