<svg width="415" height="631" viewBox="0 0 415 631" fill="none" xmlns="http://www.w3.org/2000/svg">
<path d="M149.5 366L131.5 347.5L213.5 268.5L294 347.5L275.5 365.5L213.5 304.5L149.5 366Z" fill="#FAFAFA"/>
<path d="M254 49.5C326 64 379.5 117.5 391 195H288.5C281 167 262.5 144 229.5 137.5V25H193V136C146.5 136 113 165.5 117.5 195C122.915 230.5 162.936 242.033 260 258.5C370 285.5 418 337.5 414 433C404 514 350 568 253.5 583V631H168.5V580.5C66.5 562 4.5 495 0 408H100.5C115 461.5 141 482.5 193 492.5V607.5H229.5V492.5C284 489.5 312 470.5 312 433C312 403 291.725 387.704 257.5 376.5V347.5L276.5 365L294 347.5L213.5 269L138 341.5C58.5 327 10.257 272 18 195C27 105.5 93 54 169 49.5V0.5H254V49.5Z" fill="#07A262"/>
<path d="M212 337.5L191.5 358L245 371L212 337.5Z" fill="#07A262"/>
</svg>
