<svg width="2147" height="631" viewBox="0 0 2147 631" fill="none" xmlns="http://www.w3.org/2000/svg">
<path d="M149.5 365.5L131.5 347L213.5 268L294 347L275.5 365L213.5 304L149.5 365.5Z" fill="#FAFAFA"/>
<path d="M254 49C326 63.5 379.5 117 391 194.5H288.5C281 166.5 262.5 143.5 229.5 137V24.5H193V135.5C146.5 135.5 113 165 117.5 194.5C122.915 230 162.936 241.533 260 258C370 285 418 337 414 432.5C404 513.5 350 567.5 253.5 582.5V630.5H168.5V580C66.5 561.5 4.5 494.5 0 407.5H100.5C115 461 141 482 193 492V607H229.5V492C284 489 312 470 312 432.5C312 402.5 291.725 387.204 257.5 376V347L276.5 364.5L294 347L213.5 268.5L138 341C58.5 326.5 10.257 271.5 18 194.5C27 105 93 53.5 169 49V0H254V49Z" fill="#07A262"/>
<path d="M212 337L191.5 357.5L245 370.5L212 337Z" fill="#07A262"/>
<path d="M559.611 287.321V319.927H687.488C699.784 319.927 709.62 330.993 709.62 344.519C709.62 356.815 698.554 367.881 687.488 367.881H559.611V590.435C559.611 606.42 552.234 617.486 536.249 617.486C521.494 617.486 514.117 606.42 514.117 590.435V367.881H500.592C488.296 367.881 476 359.274 476 344.519C476 330.993 487.066 319.927 500.592 319.927H514.117V280.581C514.117 237.545 552.234 185.903 605.106 185.903L705.932 184.673C718.227 184.673 728.064 195.74 728.064 209.265C728.064 221.561 718.227 231.397 705.932 231.397H605.106C578.055 231.397 560.841 255.989 559.611 287.321Z" fill="#07A262"/>
<path d="M986.276 428.13C986.276 329.764 865.777 275.662 796.921 346.978V333.453C789.269 322.027 784.63 319.607 772.329 319.927C759.251 321.123 754.431 324.932 750.196 337.141V590.435C750.196 629.781 796.921 629.781 796.921 590.435V449.033C794.461 338.371 939.552 333.453 939.552 449.033V590.435C939.552 626.093 986.276 626.093 986.276 590.435V428.13Z" fill="#07A262"/>
<path d="M1235.88 393.701C1184.24 334.681 1090.79 366.651 1090.79 431.819V499.446C1090.79 578.139 1190.39 602.73 1235.88 538.792C1258.01 512.971 1292.44 535.103 1276.46 563.384C1206.37 665.439 1042.84 623.633 1042.84 499.446L1042.84 431.819C1042.84 328.534 1192.85 263.366 1274 366.651C1292.44 397.39 1255.55 416.185 1235.88 393.701Z" fill="#FAFAFA"/>
<path d="M1706.81 321.157H1779.36C1821.16 321.157 1864.64 361.893 1846.98 381.406C1823.62 407.227 1803.95 366.651 1771.98 366.651H1712.96C1668.69 366.651 1668.69 441.656 1712.96 441.656H1781.82C1892.48 441.656 1890.02 615.026 1781.82 615.026H1712.96C1685.91 613.797 1669.68 603.397 1650.25 586.746C1633.04 571.991 1633.04 543.383 1650.25 538.792C1680.99 530.595 1677.3 565.843 1716.65 569.532H1771.98C1832.23 569.532 1833.46 487.15 1771.98 487.15H1706.81C1612.13 487.15 1610.9 321.157 1706.81 321.157Z" fill="#FAFAFA"/>
<path d="M1914.61 589.205V214.183C1914.61 177.296 1962.56 177.296 1962.56 214.183V345.748C2032.65 280.581 2147 323.616 2147 424.442V589.205C2147 628.552 2100.28 628.552 2100.28 589.205V428.13C2100.28 338.371 1962.56 340.83 1962.56 434.278V589.205C1962.56 628.552 1914.61 628.552 1914.61 589.205Z" fill="#FAFAFA"/>
<path d="M1508.85 557.236L1503.93 560.925L1528.52 596.583L1533.44 594.124L1508.85 557.236Z" fill="#FAFAFA"/>
<path d="M1441.22 618.715C1479.44 619.792 1498.81 614.541 1530.98 595.353L1505.16 559.695C1488.62 571.884 1477.77 576.142 1453.52 575.68C1394.77 565.563 1378.51 542.481 1378.51 465.018C1378.51 394.923 1399.41 362.962 1453.52 362.962C1516.22 362.962 1535.9 392.472 1535.9 465.018C1535.9 512.971 1534.06 535.378 1507.62 558.466L1532.21 594.124C1532.21 608.879 1544.51 618.715 1558.03 618.715C1575.24 618.715 1581.39 607.649 1581.39 589.205V465.018C1591.23 362.962 1534.67 315.009 1453.52 315.009C1376.05 315.009 1333.3 371.569 1333.02 465.018C1332.74 558.466 1373.59 611.338 1441.22 618.715Z" fill="#FAFAFA"/>
</svg>
