<svg xmlns="http://www.w3.org/2000/svg" xmlns:xlink="http://www.w3.org/1999/xlink" width="2048" zoomAndPan="magnify" viewBox="0 0 1536 450.749984" height="601" preserveAspectRatio="xMidYMid meet" version="1.2"><defs><clipPath id="a073697e77"><path d="M 0.425781 0 L 297 0 L 297 450.5 L 0.425781 450.5 Z M 0.425781 0 "/></clipPath><clipPath id="1fa1f87ece"><path d="M 1369 133 L 1535.574219 133 L 1535.574219 443 L 1369 443 Z M 1369 133 "/></clipPath></defs><g id="025ce7ff42"><path style=" stroke:none;fill-rule:nonzero;fill:#000000;fill-opacity:1;" d="M 107.335938 260.996094 L 94.464844 247.769531 L 153.097656 191.28125 L 210.652344 247.769531 L 197.425781 260.636719 L 153.097656 217.023438 Z M 107.335938 260.996094 "/><g clip-rule="nonzero" clip-path="url(#a073697e77)"><path style=" stroke:none;fill-rule:nonzero;fill:#07a262;fill-opacity:1;" d="M 182.054688 34.695312 C 233.535156 45.0625 271.785156 83.316406 280.007812 138.730469 L 206.722656 138.730469 C 201.359375 118.710938 188.132812 102.265625 164.535156 97.617188 L 164.535156 17.179688 L 138.4375 17.179688 L 138.4375 96.542969 C 105.191406 96.542969 81.238281 117.636719 84.457031 138.730469 C 88.328125 164.113281 116.941406 172.359375 186.34375 184.132812 C 264.996094 203.4375 299.316406 240.617188 296.453125 308.902344 C 289.304688 366.816406 250.695312 405.425781 181.695312 416.152344 L 181.695312 450.472656 L 120.921875 450.472656 L 120.921875 414.363281 C 47.992188 401.136719 3.660156 353.230469 0.441406 291.027344 L 72.300781 291.027344 C 82.667969 329.277344 101.257812 344.292969 138.4375 351.441406 L 138.4375 433.667969 L 164.535156 433.667969 L 164.535156 351.441406 C 203.503906 349.296875 223.523438 335.714844 223.523438 308.902344 C 223.523438 287.449219 209.027344 276.515625 184.554688 268.503906 L 184.554688 247.769531 L 198.140625 260.28125 L 210.652344 247.769531 L 153.097656 191.640625 L 99.113281 243.476562 C 42.269531 233.109375 7.777344 193.785156 13.3125 138.730469 C 19.746094 74.738281 66.9375 37.914062 121.277344 34.695312 L 121.277344 -0.339844 L 182.054688 -0.339844 Z M 182.054688 34.695312 "/></g><path style=" stroke:none;fill-rule:nonzero;fill:#07a262;fill-opacity:1;" d="M 152.023438 240.617188 L 137.367188 255.273438 L 175.617188 264.570312 Z M 152.023438 240.617188 "/><path style=" stroke:none;fill-rule:nonzero;fill:#07a262;fill-opacity:1;" d="M 400.566406 205.097656 L 400.566406 228.410156 L 492 228.410156 C 500.792969 228.410156 507.824219 236.324219 507.824219 245.992188 C 507.824219 254.785156 499.910156 262.699219 492 262.699219 L 400.566406 262.699219 L 400.566406 421.824219 C 400.566406 433.253906 395.292969 441.167969 383.863281 441.167969 C 373.3125 441.167969 368.039062 433.253906 368.039062 421.824219 L 368.039062 262.699219 L 358.367188 262.699219 C 349.578125 262.699219 340.785156 256.542969 340.785156 245.992188 C 340.785156 236.324219 348.695312 228.410156 358.367188 228.410156 L 368.039062 228.410156 L 368.039062 200.277344 C 368.039062 169.507812 395.292969 132.582031 433.097656 132.582031 L 505.1875 131.703125 C 513.976562 131.703125 521.011719 139.617188 521.011719 149.285156 C 521.011719 158.078125 513.976562 165.109375 505.1875 165.109375 L 433.097656 165.109375 C 413.753906 165.109375 401.445312 182.695312 400.566406 205.097656 Z M 400.566406 205.097656 "/><path style=" stroke:none;fill-rule:nonzero;fill:#07a262;fill-opacity:1;" d="M 705.632812 305.777344 C 705.632812 235.445312 619.476562 196.761719 570.246094 247.75 L 570.246094 238.082031 C 564.773438 229.910156 561.457031 228.179688 552.660156 228.410156 C 543.3125 229.265625 539.863281 231.988281 536.835938 240.71875 L 536.835938 421.824219 C 536.835938 449.957031 570.246094 449.957031 570.246094 421.824219 L 570.246094 320.722656 C 568.484375 241.597656 672.226562 238.082031 672.226562 320.722656 L 672.226562 421.824219 C 672.226562 447.320312 705.632812 447.320312 705.632812 421.824219 Z M 705.632812 305.777344 "/><path style=" stroke:none;fill-rule:nonzero;fill:#000000;fill-opacity:1;" d="M 884.101562 281.160156 C 847.179688 238.960938 780.363281 261.816406 780.363281 308.414062 L 780.363281 356.765625 C 780.363281 413.03125 851.578125 430.617188 884.101562 384.898438 C 899.925781 366.4375 924.542969 382.261719 913.117188 402.484375 C 863.003906 475.453125 746.078125 445.5625 746.078125 356.765625 L 746.078125 308.414062 C 746.078125 234.5625 853.335938 187.96875 911.359375 261.816406 C 924.542969 283.796875 898.167969 297.234375 884.101562 281.160156 Z M 884.101562 281.160156 "/><path style=" stroke:none;fill-rule:nonzero;fill:#000000;fill-opacity:1;" d="M 1220.820312 229.289062 L 1272.691406 229.289062 C 1302.578125 229.289062 1333.667969 258.417969 1321.042969 272.367188 C 1304.339844 290.832031 1290.273438 261.816406 1267.417969 261.816406 L 1225.214844 261.816406 C 1193.5625 261.816406 1193.5625 315.445312 1225.214844 315.445312 L 1274.453125 315.445312 C 1353.574219 315.445312 1351.816406 439.40625 1274.453125 439.40625 L 1225.214844 439.40625 C 1205.875 438.527344 1194.269531 431.09375 1180.378906 419.1875 C 1168.074219 408.636719 1168.074219 388.183594 1180.378906 384.898438 C 1202.359375 379.039062 1199.71875 404.242188 1227.855469 406.878906 L 1267.417969 406.878906 C 1310.496094 406.878906 1311.375 347.976562 1267.417969 347.976562 L 1220.820312 347.976562 C 1153.121094 347.976562 1152.242188 229.289062 1220.820312 229.289062 Z M 1220.820312 229.289062 "/><g clip-rule="nonzero" clip-path="url(#1fa1f87ece)"><path style=" stroke:none;fill-rule:nonzero;fill:#000000;fill-opacity:1;" d="M 1369.398438 420.945312 L 1369.398438 152.804688 C 1369.398438 126.429688 1403.683594 126.429688 1403.683594 152.804688 L 1403.683594 246.871094 C 1453.796875 200.277344 1535.558594 231.046875 1535.558594 303.140625 L 1535.558594 420.945312 C 1535.558594 449.078125 1502.152344 449.078125 1502.152344 420.945312 L 1502.152344 305.777344 C 1502.152344 241.597656 1403.683594 243.355469 1403.683594 310.171875 L 1403.683594 420.945312 C 1403.683594 449.078125 1369.398438 449.078125 1369.398438 420.945312 Z M 1369.398438 420.945312 "/></g><path style=" stroke:none;fill-rule:nonzero;fill:#000000;fill-opacity:1;" d="M 1079.277344 398.085938 L 1075.757812 400.726562 L 1093.339844 426.21875 L 1096.859375 424.460938 Z M 1079.277344 398.085938 "/><path style=" stroke:none;fill-rule:nonzero;fill:#000000;fill-opacity:1;" d="M 1030.921875 442.046875 C 1058.25 442.816406 1072.097656 439.0625 1095.101562 425.339844 L 1076.640625 399.84375 C 1064.8125 408.5625 1057.054688 411.605469 1039.714844 411.273438 C 997.710938 404.042969 986.082031 387.539062 986.082031 332.152344 C 986.082031 282.03125 1001.027344 259.179688 1039.714844 259.179688 C 1084.546875 259.179688 1098.617188 280.28125 1098.617188 332.152344 C 1098.617188 366.4375 1097.300781 382.457031 1078.398438 398.964844 L 1095.980469 424.460938 C 1095.980469 435.011719 1104.773438 442.046875 1114.441406 442.046875 C 1126.746094 442.046875 1131.144531 434.132812 1131.144531 420.945312 L 1131.144531 332.152344 C 1138.179688 259.179688 1097.738281 224.894531 1039.714844 224.894531 C 984.324219 224.894531 953.757812 265.335938 953.558594 332.152344 C 953.359375 398.964844 982.566406 436.769531 1030.921875 442.046875 Z M 1030.921875 442.046875 "/></g></svg>